<svg id="svg" xmlns="http://www.w3.org/2000/svg" xmlns:xlink="http://www.w3.org/1999/xlink" width="400" height="400" viewBox="0, 0, 400,400" version="1.1">
  <g id="svgg">
    <path id="path0" d="M55.301 120.500 C 55.083 120.775,54.690 121.990,54.428 123.200 C 53.812 126.040,52.621 131.108,51.564 135.380 C 51.104 137.239,50.845 138.949,50.988 139.180 C 51.164 139.466,58.880 139.601,75.124 139.602 C 100.537 139.603,102.880 139.744,109.023 141.632 C 123.465 146.072,128.509 156.962,122.256 170.200 C 117.642 179.967,106.614 186.484,90.800 188.788 C 86.283 189.446,73.962 189.786,73.638 189.261 C 73.481 189.007,74.493 183.895,75.886 177.900 C 78.709 165.753,80.694 157.113,81.286 154.400 C 81.502 153.410,81.842 151.880,82.042 151.000 C 82.243 150.120,82.518 148.815,82.655 148.100 L 82.905 146.800 66.076 146.800 C 53.634 146.800,49.172 146.922,48.957 147.269 C 48.798 147.527,48.539 148.382,48.381 149.169 C 48.224 149.956,47.693 152.310,47.200 154.400 C 46.707 156.490,46.169 158.830,46.003 159.600 C 45.837 160.370,44.319 166.940,42.629 174.200 C 40.940 181.460,39.103 189.380,38.546 191.800 C 37.990 194.220,37.025 198.360,36.401 201.000 C 35.777 203.640,35.144 206.578,34.993 207.528 L 34.720 209.256 63.460 209.087 C 96.538 208.891,99.013 208.676,112.200 204.856 C 148.197 194.427,166.828 169.629,158.631 143.058 C 157.723 140.118,157.749 138.951,158.709 139.544 C 158.978 139.710,159.999 142.175,160.978 145.023 C 161.957 147.870,163.861 153.350,165.210 157.200 C 166.558 161.050,167.996 165.190,168.406 166.400 C 169.396 169.323,174.871 185.112,178.185 194.600 C 179.645 198.780,181.271 203.460,181.799 205.000 C 182.328 206.540,183.767 210.680,184.999 214.200 C 186.230 217.720,187.888 222.535,188.683 224.900 C 189.495 227.316,190.349 229.200,190.631 229.200 C 190.907 229.200,193.890 226.005,197.260 222.100 C 200.629 218.195,203.951 214.370,204.642 213.600 C 205.333 212.830,208.461 209.230,211.593 205.600 C 214.725 201.970,217.764 198.460,218.347 197.800 C 218.931 197.140,221.740 193.900,224.591 190.600 C 227.443 187.300,232.203 181.810,235.171 178.400 C 238.139 174.990,242.133 170.400,244.047 168.200 C 245.962 166.000,250.637 160.600,254.436 156.200 C 258.236 151.800,263.038 146.265,265.108 143.900 L 268.870 139.600 292.535 139.602 C 317.188 139.603,320.121 139.766,325.942 141.458 C 350.933 148.724,346.528 177.196,319.000 186.322 C 311.274 188.883,291.283 190.846,290.700 189.100 C 290.500 188.504,290.571 188.185,297.657 157.800 C 298.118 155.820,298.835 152.898,299.248 151.307 C 300.567 146.232,302.556 146.776,283.100 146.896 L 266.200 147.000 265.688 149.000 C 265.406 150.100,265.022 151.720,264.835 152.600 C 264.647 153.480,264.091 155.910,263.599 158.000 C 263.107 160.090,262.570 162.430,262.406 163.200 C 262.242 163.970,260.724 170.540,259.032 177.800 C 257.341 185.060,255.497 192.980,254.934 195.400 C 254.371 197.820,253.481 201.625,252.955 203.856 C 252.430 206.087,252.000 208.214,252.000 208.582 C 252.000 209.559,307.014 209.295,313.600 208.287 C 323.040 206.843,333.275 204.099,339.600 201.316 C 389.381 179.419,390.872 134.163,342.200 122.399 C 333.017 120.180,334.964 120.266,290.193 120.107 L 248.585 119.959 239.193 131.260 C 229.471 142.956,221.588 152.686,216.400 159.391 C 214.750 161.524,212.399 164.558,211.176 166.134 C 209.953 167.710,207.753 170.759,206.288 172.908 C 202.927 177.841,203.131 177.846,202.018 172.800 C 201.549 170.675,200.770 167.860,199.138 162.400 C 198.217 159.318,186.150 122.693,185.530 121.100 L 185.103 120.000 120.400 120.000 C 69.117 120.000,55.616 120.104,55.301 120.500 M157.400 230.840 C 145.162 231.226,130.828 231.897,123.600 232.422 C 110.822 233.349,101.175 234.157,95.200 234.799 C 93.330 235.000,89.910 235.359,87.600 235.598 C 85.290 235.836,82.320 236.196,81.000 236.397 C 79.680 236.597,77.070 236.969,75.200 237.222 C 56.668 239.733,39.838 243.757,31.796 247.599 C 15.435 255.416,28.991 264.289,66.600 270.382 C 76.454 271.978,76.788 272.024,88.400 273.405 C 100.513 274.844,125.173 276.701,145.200 277.681 C 159.565 278.384,223.099 278.389,237.600 277.688 C 257.670 276.717,280.831 274.996,292.800 273.586 C 296.430 273.158,301.020 272.618,303.000 272.386 C 308.560 271.732,320.042 269.905,325.800 268.756 C 361.667 261.603,368.184 252.677,343.440 244.596 C 335.334 241.948,321.186 239.004,308.000 237.221 C 306.130 236.968,303.520 236.597,302.200 236.397 C 300.880 236.196,297.910 235.841,295.600 235.609 C 293.290 235.376,289.870 235.017,288.000 234.810 C 282.343 234.183,272.735 233.375,259.600 232.422 C 234.987 230.636,187.251 229.897,157.400 230.840 M199.000 247.393 C 207.682 248.137,211.530 248.797,218.000 250.650 C 221.178 251.560,223.898 254.032,223.410 255.567 C 220.583 264.475,158.124 265.510,148.803 256.803 C 141.977 250.427,170.976 244.991,199.000 247.393 " stroke="none" fill="#fafafa" fill-rule="evenodd"></path>
    <path id="path1" d="M0.000 200.000 L 0.000 400.000 200.000 400.000 L 400.000 400.000 400.000 200.000 L 400.000 0.000 200.000 0.000 L 0.000 0.000 0.000 200.000 M185.530 121.100 C 186.150 122.693,198.217 159.318,199.138 162.400 C 200.770 167.860,201.549 170.675,202.018 172.800 C 203.131 177.846,202.927 177.841,206.288 172.908 C 207.753 170.759,209.953 167.710,211.176 166.134 C 212.399 164.558,214.750 161.524,216.400 159.391 C 221.588 152.686,229.471 142.956,239.193 131.260 L 248.585 119.959 290.193 120.107 C 326.140 120.235,332.263 120.341,335.200 120.892 C 390.251 131.212,392.806 177.912,339.600 201.316 C 333.275 204.099,323.040 206.843,313.600 208.287 C 307.014 209.295,252.000 209.559,252.000 208.582 C 252.000 208.214,252.430 206.087,252.955 203.856 C 253.481 201.625,254.371 197.820,254.934 195.400 C 255.497 192.980,257.341 185.060,259.032 177.800 C 260.724 170.540,262.242 163.970,262.406 163.200 C 262.570 162.430,263.107 160.090,263.599 158.000 C 264.091 155.910,264.647 153.480,264.835 152.600 C 265.022 151.720,265.406 150.100,265.688 149.000 L 266.200 147.000 283.100 146.896 C 302.556 146.776,300.567 146.232,299.248 151.307 C 298.835 152.898,298.118 155.820,297.657 157.800 C 290.571 188.185,290.500 188.504,290.700 189.100 C 291.283 190.846,311.274 188.883,319.000 186.322 C 346.528 177.196,350.933 148.724,325.942 141.458 C 320.121 139.766,317.188 139.603,292.535 139.602 L 268.870 139.600 265.108 143.900 C 263.038 146.265,258.236 151.800,254.436 156.200 C 250.637 160.600,245.962 166.000,244.047 168.200 C 242.133 170.400,238.139 174.990,235.171 178.400 C 232.203 181.810,227.443 187.300,224.591 190.600 C 221.740 193.900,218.931 197.140,218.347 197.800 C 217.764 198.460,214.725 201.970,211.593 205.600 C 208.461 209.230,205.333 212.830,204.642 213.600 C 203.951 214.370,200.629 218.195,197.260 222.100 C 193.890 226.005,190.907 229.200,190.631 229.200 C 190.349 229.200,189.495 227.316,188.683 224.900 C 187.888 222.535,186.230 217.720,184.999 214.200 C 183.767 210.680,182.328 206.540,181.799 205.000 C 181.271 203.460,179.645 198.780,178.185 194.600 C 174.871 185.112,169.396 169.323,168.406 166.400 C 167.996 165.190,166.558 161.050,165.210 157.200 C 163.861 153.350,161.957 147.870,160.978 145.023 C 159.999 142.175,158.978 139.710,158.709 139.544 C 157.749 138.951,157.723 140.118,158.631 143.058 C 160.963 150.619,161.213 160.848,159.212 166.837 C 152.294 187.541,128.252 203.401,96.400 208.274 C 92.929 208.805,87.209 208.946,63.460 209.087 L 34.720 209.256 34.993 207.528 C 35.144 206.578,35.777 203.640,36.401 201.000 C 37.025 198.360,37.990 194.220,38.546 191.800 C 39.103 189.380,40.940 181.460,42.629 174.200 C 44.319 166.940,45.837 160.370,46.003 159.600 C 46.169 158.830,46.707 156.490,47.200 154.400 C 47.693 152.310,48.224 149.956,48.381 149.169 C 48.539 148.382,48.798 147.527,48.957 147.269 C 49.172 146.922,53.634 146.800,66.076 146.800 L 82.905 146.800 82.655 148.100 C 82.518 148.815,82.243 150.120,82.042 151.000 C 81.842 151.880,81.502 153.410,81.286 154.400 C 80.694 157.113,78.709 165.753,75.886 177.900 C 74.493 183.895,73.481 189.007,73.638 189.261 C 74.593 190.806,94.524 188.721,101.800 186.315 C 125.925 178.338,133.257 153.091,114.186 143.665 C 106.614 139.923,103.546 139.604,75.124 139.602 C 58.880 139.601,51.164 139.466,50.988 139.180 C 50.845 138.949,51.104 137.239,51.564 135.380 C 52.621 131.108,53.812 126.040,54.428 123.200 C 54.690 121.990,55.083 120.775,55.301 120.500 C 55.616 120.104,69.117 120.000,120.400 120.000 L 185.103 120.000 185.530 121.100 M223.400 230.788 C 238.230 231.255,252.209 231.886,259.600 232.422 C 272.735 233.375,282.343 234.183,288.000 234.810 C 289.870 235.017,293.290 235.376,295.600 235.609 C 297.910 235.841,300.880 236.196,302.200 236.397 C 303.520 236.597,306.130 236.968,308.000 237.221 C 321.186 239.004,335.334 241.948,343.440 244.596 C 368.184 252.677,361.667 261.603,325.800 268.756 C 320.042 269.905,308.560 271.732,303.000 272.386 C 301.020 272.618,296.430 273.158,292.800 273.586 C 280.831 274.996,257.670 276.717,237.600 277.688 C 223.099 278.389,159.565 278.384,145.200 277.681 C 117.506 276.326,88.822 273.868,74.200 271.597 C 41.854 266.573,26.153 261.285,24.977 255.021 C 23.749 248.472,43.294 241.546,75.200 237.222 C 77.070 236.969,79.680 236.597,81.000 236.397 C 82.320 236.196,85.290 235.836,87.600 235.598 C 89.910 235.359,93.330 235.000,95.200 234.799 C 101.175 234.157,110.822 233.349,123.600 232.422 C 147.788 230.667,194.979 229.894,223.400 230.788 M171.600 247.416 C 133.077 250.844,143.617 262.803,185.200 262.847 C 213.012 262.876,230.599 257.402,220.600 251.828 C 219.720 251.337,218.550 250.807,218.000 250.650 C 217.450 250.492,216.039 250.100,214.865 249.778 C 205.450 247.195,186.010 246.134,171.600 247.416 " stroke="none" fill="#040404" fill-rule="evenodd"></path>
  </g>
</svg>